# xmcd
#
# Track frame offsets: 
#        150
#        24485
#        49433
#        74858
#        101297
#        133615
#        162640
#        189146
#        212682
#        238748
#
# Disc length: 3574 seconds
#
# Revision: 1
# Processed by: cddbd v1.5.2PL0 Copyright (c) Steve Scherf et al.
# Submitted via: ExactAudioCopy v1.0b1
#
DISCID=910df40a
DTITLE=Le Dzung - Mau Nang Co Bao Gio Phai Dau
DYEAR=1997
DGENRE=Blues
TTITLE0=Tam Su
TTITLE1=Gui Nguoi Em Gai
TTITLE2=Vang Phai May La
TTITLE3=Thu Quyen Ru
TTITLE4=Gui Gio Cho May Ngan Bay
TTITLE5=Chiec La Cuoi Cung
TTITLE6=La Thu
TTITLE7=Tinh Nghe Si
TTITLE8=Duong Ve Mien Bac
TTITLE9=Mau Nang Co Bao Gio Phai Dau
EXTD=
EXTT0=
EXTT1=
EXTT2=
EXTT3=
EXTT4=
EXTT5=
EXTT6=
EXTT7=
EXTT8=
EXTT9=
PLAYORDER=
